<?xml version="1.0" encoding="UTF-8"?><svg id="Layer_2" xmlns="http://www.w3.org/2000/svg" viewBox="0 0 600.02 524.65"><defs><style>.cls-1{fill:#badad5;}</style></defs><g id="Layer_1-2"><path class="cls-1" d="m600.01,324.08c-9.57,1.43-17.38,3.41-23.09,5.72l-155.83-98.97-45.75-37.39c-18.59-21.44-29.14-46.52-32.77-56.2,17.16-5.17,30.13-17.05,37.94-34.53,0-.11.11-.11.11-.22.77-1.65,1.43-3.41,2.09-5.39.33-.99.55-1.98.66-3.08.22-1.65-.66-3.41-2.2-4.18s-3.41-.55-4.73.66c-.44.44-49.05,44.87-101.06,49.38-1.43.11-2.53.88-3.3,1.98-.33.66-33.65,57.18-94.13,53.34-21.99-1.32-36.62-6.93-42.34-16.28-5.28-8.69-1.43-17.93-1.43-17.93.22-.33,16.5-29.36,33.54-40.69,4.62-3.08,9.24-7.59,13.42-12.54,12.54-14.85,21.88-34.09,22.43-35.19.22-.55,3.96-8.58,14.85-15.73,6.49-4.4,15.62-8.47,28.04-10.45,25.07-4.07,60.15-16.06,78.74-22.87,9.57-3.41,15.73-5.83,15.95-5.94.33-.22,36.95-16.17,63.23-1.43,28.37,15.95,46.74,23.09,47.07,23.2.66.33,66.31,35.19,83.58,58.5.44.66,1.1,1.1,1.87,1.43.33.11,9.13,3.41,21.11,3.19v.55c-.11,2.53,0,4.95.55,7.48l41.46,213.56v.02Z"/><path class="cls-1" d="m572.19,336.73c2.75,4.84,10.45,23.09-6.71,52.13-19.02,32.33-47.07,20.56-48.17,20.12-.66-.33-58.17-26.06-85.12-44.54-18.36-12.76-52.68-31.89-66.53-39.59-2.2-1.21-4.95-.99-6.93.55-1.76,1.21-2.75,3.19-2.64,5.28.11,2.2,1.1,4.07,2.97,5.28,41.24,26.94,115.58,74.12,148.9,86.33,2.97,1.1,5.28,3.41,6.38,6.16.99,2.86.66,5.83-.77,8.47-7.7,13.64-20.01,24.19-37.39,31.56-.44.22-10.67,6.38-30.46-3.41-11.55-5.61-62.35-35.85-146.92-87.32-2.2-1.32-5.06-1.21-7.15.44-1.65,1.32-2.53,3.3-2.42,5.28.11,2.09,1.21,3.96,2.97,5.06l137.13,83.58c2.64,1.54,4.29,4.29,4.73,7.37.33,3.3-.77,6.6-3.08,8.91-4.4,4.18-8.91,7.48-9.46,7.81-25.95,25.29-71.04-6.71-71.92-7.26l-110.63-64.66c-2.09-1.21-4.73-.99-6.82.77-1.65,1.1-2.42,2.97-2.42,4.95.11,1.98,1.21,3.74,2.86,4.73l102.16,61.47c3.3,1.98,5.17,5.39,4.95,9.24-.11,3.85-2.31,7.26-5.83,9.02-3.19,1.43-5.72,2.42-5.72,2.42-.44.22-.77.33-.99.55-12.76,9.68-30.02,1.32-30.68.99l-41.35-15.4c-25.84-9.68-55.87-20.89-64.44-24.3-2.97-1.21-5.61-2.64-8.03-4.29-.88-.66-1.65-1.21-2.31-1.76-1.1-.99-2.09-1.98-2.86-2.86-.55-.66-1.32-.99-2.31-1.1l-39.92-43.77-5.39-5.94v-.11l-38.16-41.79h-.11l-4.07-4.4v-.11l-29.8-32.66c-.11-.11-.66-.88-1.87-2.09-3.63-3.74-12.76-11.22-30.13-15.62-7.81-1.98-16.39-3.19-25.73-3.41L37.51,112.39c.44-2.53.44-5.17.22-7.7,0-.66,0-1.21-.11-1.76s0-1.1-.11-1.65c6.38.22,13.75.33,19.13-.22.77-.11,1.43-.33,1.98-.77,1.32-.99,134.27-97.98,180.24-100.29.33.11,36.4,4.29,73.68,19.35-1.54.55-3.19,1.1-4.84,1.65-.66.22-1.32.44-1.98.66-2.97.99-6.16,2.09-9.35,3.08-.22.11-.44.22-.77.33-2.86.88-5.72,1.76-8.69,2.75-.99.22-1.87.55-2.86.88l-6.93,1.98c-1.21.33-2.31.66-3.41.99-2.2.66-4.4,1.21-6.6,1.76-1.21.33-2.31.66-3.41.88-2.31.55-4.51,1.1-6.6,1.54-.99.22-2.09.55-2.97.77-3.08.55-6.16,1.21-9.02,1.65-37.94,6.16-48.72,29.91-49.05,30.79-.11.33-16.06,33.1-32.99,44.43-18.7,12.43-35.41,42.23-36.29,43.77-.22.55-5.83,13.42,1.65,25.84,7.26,11.99,23.75,18.8,49.05,20.34,59.49,3.41,94.02-45.2,100.62-55.54,37.61-3.96,72.14-26.39,90.51-40.25-7.59,11.99-18.37,19.57-32.33,22.65-1.1.22-2.09.99-2.75,1.98-.55.99-.66,2.2-.33,3.3.44,1.43,11.22,34.86,36.4,63.78l46.63,38.16,155.94,99.19.02.02Z"/><path class="cls-1" d="m120.43,420.75c-12.21,7.04-31.56,13.2-47.73-3.74,0-.11-4.62-3.41-7.26-9.35-1.21-2.75-1.21-5.94,0-8.69,1.32-2.86,3.63-4.95,6.49-5.94,6.16-2.09,11.55-4.62,16.17-7.7l32.33,35.41h0Z"/><path class="cls-1" d="m78.53,375c-8.14,6.16-26.17,15.18-47.07-1.98-8.91-7.26-13.53-14.96-13.75-22.87-.22-9.02,5.39-16.28,8.14-19.35.88.33,1.76.55,2.53.77,1.1.33,2.09.66,3.08.99,1.1.44,2.09.88,3.08,1.32.88.33,1.65.66,2.42.99.99.44,1.76.88,2.64,1.43.66.33,1.32.66,1.87.99.88.44,1.54.88,2.2,1.32.55.33.99.66,1.43.99.66.44,1.21.88,1.76,1.32.33.22.66.55.99.77.44.44.88.77,1.21,1.1.22.22.55.44.66.66.33.33.55.55.88.77,0,.11.22.33.33.44.22.22.33.44.44.44l27.16,29.91h0Z"/><path class="cls-1" d="m192.24,488.16c11.11,4.18,33.65,12.65,54.77,20.56-9.57,10.78-28.92,22.76-64.11,11.22-.11,0-11.55-6.38-17.16-16.06-1.43-2.64-1.76-5.72-.77-8.58.99-2.97,3.08-5.39,5.94-6.6,3.41-1.43,6.6-3.41,9.68-5.83,2.2,1.32,4.51,2.53,7.04,3.52,1.1.44,2.53.99,4.18,1.65.11,0,.33.11.44.11h0Z"/><path class="cls-1" d="m169.91,475.07c-14.63,6.6-33.54,9.35-49.93-7.92-.11-.11-7.81-5.61-10.23-15.4-1.43-5.72,1.87-11.55,7.59-13.31,3.52-1.1,8.69-2.86,14.08-5.61l38.49,42.23h0Z"/></g></svg>